<?xml version="1.0" standalone="no"?>
<!DOCTYPE svg PUBLIC "-//W3C//DTD SVG 1.1//EN" "http://www.w3.org/Graphics/SVG/1.1/DTD/svg11.dtd" >
<svg xmlns="http://www.w3.org/2000/svg">
<metadata>
This is a custom SVG webfont generated by Font Squirrel.
Copyright   : Generated by RoboFog
Designer    : Darden Studio
Foundry     : Darden Studio
Foundry URL : httpwwwdardenstudiocom
</metadata>
<defs>
<font id="BirraStout" horiz-adv-x="1900" >
<font-face units-per-em="2048" ascent="1638" descent="-410" />
<missing-glyph horiz-adv-x="593" />
<glyph unicode=" "  horiz-adv-x="593" />
<glyph unicode="&#x09;" horiz-adv-x="593" />
<glyph unicode="&#xa0;" horiz-adv-x="593" />
<glyph unicode="!" horiz-adv-x="933" d="M55 981q0 154 114 242t298 88t298 -88t114 -242q0 -147 -113 -260t-268 -176h-41q-160 68 -281 179.5t-121 256.5zM213 219q0 106 70.5 175t183.5 69t183.5 -68.5t70.5 -175.5q0 -104 -70.5 -173t-183.5 -69t-183.5 69t-70.5 173z" />
<glyph unicode="&#x22;" horiz-adv-x="1363" d="M72 590q2 68 5 111.5t12 126.5t23.5 139.5t42 126t64.5 112.5t93.5 73t125.5 30q100 0 168 -62.5t68 -173.5q0 -92 -62.5 -175t-165 -145.5t-186.5 -101.5t-176 -69zM707 590q2 68 5 111.5t12 126.5t23.5 139.5t42 126t64.5 112.5t93.5 73t125.5 30q100 0 168 -62.5 t68 -173.5q0 -92 -62.5 -175t-165 -145.5t-186.5 -101.5t-176 -69z" />
<glyph unicode="#" horiz-adv-x="1789" d="M10 145l125 371h273l20 43l39 83l45 93l16 37h-323l145 371h357l98 207h246l-99 -207h344l99 207h245l-98 -207h238l-125 -371h-291l-29 -63l-61 -129l-31 -64h342l-145 -371h-375l-98 -206h-246l98 206h-344l-98 -206h-246l98 206h-219zM653 516h344l21 43l39 83l45 93 l16 37h-344l-29 -63l-61 -129z" />
<glyph unicode="$" horiz-adv-x="1587" d="M55 829q0 186 170 315.5t484 160.5l-95 217h371l-94 -217q512 -35 594 -322v-4q-120 -58 -219 -59q-19 0 -36 3q-112 13 -184.5 73.5t-113.5 160.5q-104 -33 -152.5 -66.5t-48.5 -82.5q0 -43 83 -73t200 -57.5t234.5 -69.5t200.5 -134t83 -225q0 -193 -165 -312 t-474 -149l86 -211h-371l86 211q-530 33 -612 350v8q104 53 197 58q11 1 21 1q79 0 139 -34q69 -39 117 -98.5t79 -137.5q82 20 113.5 30.5t57 36t25.5 68.5q0 41 -57 76t-143 59.5t-187.5 61.5t-187.5 79t-143.5 115.5t-57.5 167.5z" />
<glyph unicode="%" horiz-adv-x="1910" d="M35 918q0 168 123 280.5t305 112.5q178 0 301 -114t123 -279.5t-123 -278.5t-303 -113t-303 113t-123 279zM104 0q475 377 752 662q100 102 238 259l225 263l86 104h401q-477 -379 -753 -663q-223 -229 -547 -625h-402zM297 918q0 -78 44 -121t120 -43t119 44t43 119.5 t-43 119.5t-117 44q-78 0 -122 -43.5t-44 -119.5zM1026 369q0 168 123 280.5t305 112.5q178 0 300 -113.5t122 -279.5q0 -164 -122 -278t-302 -114t-303 113t-123 279zM1286 368.5q0 -75.5 44 -119.5t122 -44q74 0 118 44t44 119.5t-43 119.5t-117 44q-78 0 -123 -44 t-45 -119.5z" />
<glyph unicode="&#x26;" horiz-adv-x="1941" d="M98 379q0 205 148.5 310.5t384.5 117.5q-84 55 -135.5 136t-51.5 171q0 137 94.5 227.5t243.5 90.5q176 0 256 -116q36 -52 36 -119q0 -83 -54 -189q-39 29 -94 32q-10 1 -19 1q-45 0 -86 -16q-49 -19 -78 -74q-18 -35 -18 -79q0 -26 6 -55q109 66 213 67q12 0 23 -1 q63 -2 99 -34t36 -77q0 -55 -44 -88t-112 -33q-117 0 -229 105q-129 -113 -129 -295q0 -154 114.5 -258.5t286.5 -104.5q154 0 279 70q-125 6 -200 72.5t-75 169.5q0 98 56.5 162.5t130 92t175 71.5t161.5 93q-88 31 -137.5 97.5t-49.5 152.5q0 117 81 196t198 79 q125 0 206.5 -80t81.5 -205q0 -178 -136 -278.5t-414 -141.5q70 -31 114.5 -97.5t44.5 -152.5q0 -203 -213 -360.5t-497 -157.5q-315 0 -506 142.5t-191 355.5z" />
<glyph unicode="'" horiz-adv-x="729" d="M72 590q2 68 5 111.5t12 126.5t23.5 139.5t42 126t64.5 112.5t93.5 73t125.5 30q100 0 168 -62.5t68 -173.5q0 -92 -62.5 -175t-165 -145.5t-186.5 -101.5t-176 -69z" />
<glyph unicode="(" horiz-adv-x="1189" d="M156 547q0 195 69.5 359.5t188 278t264 189.5t309.5 113l57 -275q-268 -45 -442 -216t-174 -449q0 -264 183.5 -445.5t437.5 -226.5l-62 -272q-154 37 -298 116.5t-265 197.5t-194.5 282t-73.5 348z" />
<glyph unicode=")" horiz-adv-x="1189" d="M141 -125q254 45 437.5 226.5t183.5 445.5q0 279 -174 449.5t-443 215.5l58 275q164 -37 309 -113t264 -189.5t188.5 -278.5t69.5 -359q0 -184 -73.5 -348t-194.5 -282t-265.5 -197.5t-297.5 -116.5z" />
<glyph unicode="*" horiz-adv-x="864" d="M41 1020l113 194l215 -172l-47 269h223l-47 -269l213 172l112 -194l-256 -94l254 -97l-110 -194l-213 178l47 -272h-223l47 272l-215 -178l-111 194l258 97z" />
<glyph unicode="+" horiz-adv-x="1024" d="M78 279v268l315 -15l-14 316h268l-14 -316l313 15v-268l-313 14l14 -313h-268l14 313z" />
<glyph unicode="," horiz-adv-x="749" d="M78 195v18q0 131 81 215t218 84q129 0 212 -85t83 -216q0 -150 -122 -247t-349 -118l-33 78q57 12 99 54t42 98q0 74 -63 111q-35 21 -80 21q-36 0 -78 -13h-10z" />
<glyph unicode="-" horiz-adv-x="884" d="M117 160v278l651 328v-279z" />
<glyph unicode="." horiz-adv-x="749" d="M94 243.5q0 116.5 78 192.5t203 76t202.5 -76t77.5 -192.5t-77.5 -191.5t-202.5 -75t-203 75t-78 191.5z" />
<glyph unicode="/" horiz-adv-x="757" d="M-139 -385l757 1858h207l-757 -1858h-207z" />
<glyph unicode="0" horiz-adv-x="1787" d="M61 645q0 299 232.5 487.5t603.5 188.5q365 0 597 -189.5t232 -486.5q0 -299 -231 -486.5t-598 -187.5q-371 0 -603.5 187.5t-232.5 486.5zM543 645q0 -154 92 -237.5t262 -83.5q166 0 257 84t91 237.5t-92 239.5t-256 86q-168 0 -261 -85t-93 -241z" />
<glyph unicode="1" horiz-adv-x="1386" d="M86 823v240q133 0 210 9t124 39t67.5 65.5t44.5 111.5l58 2l459 -2v-764q0 -184 52 -248.5t193 -64.5h21v-211h-1178v211q170 0 269.5 67.5t99.5 239.5q0 152 -108.5 228.5t-293.5 76.5h-18z" />
<glyph unicode="2" horiz-adv-x="1622" d="M80 848q0 223 189.5 347t512.5 124q371 0 570.5 -119t199.5 -336q0 -94 -42 -164.5t-103 -112.5t-160.5 -77t-184.5 -52l-205 -42q-120 -25 -195 -47l954 77l-199 -446h-1304l-15 106l418 273q244 160 327 246t83 211q0 119 -66.5 190.5t-191.5 71.5q-80 0 -144 -35 q80 -29 125 -98.5t45 -163.5q0 -121 -85 -197t-216 -76q-143 0 -228 89.5t-85 230.5z" />
<glyph unicode="3" horiz-adv-x="1603" d="M61 963q0 168 173.5 258t517.5 90q750 0 749 -336q0 -59 -22.5 -104.5t-52 -70t-82 -42t-90 -24.5t-97.5 -13q385 -72 385 -340q0 -188 -200.5 -296t-569.5 -108q-377 0 -543 94.5t-166 243.5q0 123 74 196t207 73q117 0 190.5 -71t73.5 -177q0 -115 -80 -166 q53 -16 113 -16q119 0 186.5 57t67.5 156q0 125 -61.5 182t-231.5 57v109q158 2 225.5 53t67.5 164q0 96 -61.5 147t-174.5 51q-49 0 -94 -10q57 -68 58 -170q0 -104 -72 -177t-186 -73q-133 0 -218.5 72t-85.5 191z" />
<glyph unicode="4" horiz-adv-x="1849" d="M41 369v211l776 716h615v-696l356 68v-361l-356 70v-191h137v-186h-918v186h162v183h-772zM383 606h438v434z" />
<glyph unicode="5" horiz-adv-x="1613" d="M51 885l127 434q113 -2 164 -2q133 0 260 -37t214 -90t154.5 -106.5t100.5 -90.5l33 -37q-2 8 -7 22.5t-13.5 56.5t-10.5 80v13q0 33 8 71q10 46 34 80t74 56.5t122 22.5q106 0 174.5 -67.5t68.5 -174t-82.5 -181.5t-211.5 -110l-891 64l8 -234q274 115 553 119h21 q264 0 435 -99q178 -103 179 -276q0 -215 -219.5 -322.5t-579.5 -107.5q-344 0 -520 62.5t-176 218.5q0 100 73.5 160.5t198.5 60.5q137 0 231.5 -92t108.5 -256q125 8 191.5 56t66.5 130q0 109 -92 161t-332 52h-366v363h-99z" />
<glyph unicode="6" horiz-adv-x="1753" d="M61 608q0 188 114 342t309.5 245t457.5 125q102 13 209 13q169 0 352 -33l25 -100q-305 -39 -541.5 -164t-292.5 -307q127 176 414 176q270 0 420.5 -116.5t150.5 -329.5q0 -229 -198.5 -355.5t-558.5 -126.5q-412 0 -636.5 167t-224.5 464zM713 444q0 -86 54 -134 t142 -48q84 0 135.5 48t51.5 134v13q0 82 -52.5 132t-136.5 50q-88 0 -141 -50t-53 -132v-13z" />
<glyph unicode="7" horiz-adv-x="1634" d="M70 596v713h163l117 -152q164 156 430 156q127 0 309.5 -42t264.5 -42q96 0 166 84l112 -70l-678 -1243h-649l871 838q-38 -3 -88 -3q-58 0 -131 4q-136 7 -236 7t-218 -17.5t-219.5 -77t-183.5 -163.5z" />
<glyph unicode="8" horiz-adv-x="1665" d="M51 360q0 231 346 299q-160 35 -242.5 108t-82.5 173q0 381 759 381q762 0 762 -373q0 -100 -83 -173t-242 -107q346 -68 346 -299q0 -397 -783 -398q-780 0 -780 389zM631 371q0 -72 53 -113t147.5 -41t148.5 41t54 113q0 74 -54 117.5t-148.5 43.5t-147.5 -42.5 t-53 -118.5zM651 909q0 -72 48.5 -113.5t131.5 -41.5q86 0 134.5 42t48.5 113q0 63 -50.5 105.5t-132.5 42.5q-80 0 -130 -42.5t-50 -105.5z" />
<glyph unicode="9" horiz-adv-x="1753" d="M72 817q0 231 210 367.5t570 136.5q410 0 625 -174t215 -488q0 -373 -357 -546q-278 -136 -770 -136q-139 0 -295 11l-24 100q829 104 850 485q-137 -213 -455 -213q-258 0 -413.5 125t-155.5 332zM678 819q0 -82 53 -137t135 -55q86 0 140.5 54t54.5 138v12 q0 88 -55.5 146.5t-141.5 58.5q-82 0 -134 -58t-52 -147v-12z" />
<glyph unicode=":" horiz-adv-x="749" d="M168 174q0 86 57.5 141.5t149.5 55.5t149.5 -55.5t57.5 -141.5t-57.5 -141.5t-149.5 -55.5t-149.5 55.5t-57.5 141.5zM168 649q0 88 57.5 143.5t149.5 55.5t149.5 -55.5t57.5 -143.5q0 -86 -57.5 -141t-149.5 -55t-149.5 55t-57.5 141z" />
<glyph unicode=";" horiz-adv-x="751" d="M78 53v19q0 131 81 215t218 84q129 0 212 -85t83 -216q0 -150 -122 -247t-349 -118l-33 78q57 12 99 54t42 97q0 74 -63 112q-35 21 -80 21q-36 0 -78 -14h-10zM160 649q0 88 57 143.5t149.5 55.5t149.5 -55.5t57 -143.5q0 -86 -57 -141t-149.5 -55t-149.5 55t-57 141z " />
<glyph unicode="&#x3c;" horiz-adv-x="1024" d="M98 326v176l807 387v-279l-467 -196l467 -197v-278z" />
<glyph unicode="=" horiz-adv-x="1024" d="M57 51v268h910v-268h-910zM57 506v268h910v-268h-910z" />
<glyph unicode="&#x3e;" horiz-adv-x="1024" d="M119 -61v278l467 197l-467 196v279l807 -387v-176z" />
<glyph unicode="?" horiz-adv-x="933" d="M68 1053v215q182 63 376 63q215 0 329 -87t114 -236q0 -109 -69.5 -180.5t-160 -103.5t-219.5 -83t-205 -106l-65 40q20 78 73.5 173.5t53.5 150.5q0 154 -227 154zM82 219q0 106 70.5 175t183.5 69t183.5 -68.5t70.5 -175.5q0 -104 -70.5 -173t-183.5 -69t-183.5 69 t-70.5 173z" />
<glyph unicode="@" horiz-adv-x="1798" d="M55 580q0 319 242 525t614 206q371 0 597.5 -168t226.5 -449q0 -211 -106.5 -329.5t-319.5 -118.5q-117 0 -200 41t-110 110q-80 -145 -266 -145q-137 0 -221 79t-84 204q0 147 100.5 245.5t251.5 98.5q195 0 256 -144l43 125h318l-101 -356q-8 -29 -8 -52q0 -81 103 -81 q109 0 165 86t56 237q0 236 -190.5 373t-510.5 137q-322 0 -527.5 -174t-205.5 -450.5t193.5 -443.5t515.5 -167q291 0 479 146l74 -92q-223 -160 -553 -160q-375 0 -603.5 197.5t-228.5 519.5zM780 532q0 -49 21.5 -81.5t66.5 -32.5q59 0 86 55t27 131q0 47 -23.5 78 t-64.5 31q-61 0 -87 -54.5t-26 -126.5z" />
<glyph unicode="A" d="M61 0v207h154l406 1081h634l428 -1102h156v-186h-965v186h136l-103 303h-411l-99 -282h148v-207h-484zM559 666h287l-141 413z" />
<glyph unicode="B" horiz-adv-x="1701" d="M82 0v186h135v916h-135v186h567q123 0 234.5 5t175.5 5q195 0 303 -73.5t108 -210.5q0 -121 -92 -195t-256 -76q250 -4 391.5 -103t141.5 -265q0 -182 -132 -283.5t-382 -101.5q-285 0 -492 10h-567zM850 115h27q139 0 212.5 67.5t73.5 192.5q0 129 -77.5 198.5 t-229.5 69.5h-6v-528zM850 764h10q123 0 191.5 55t68.5 154q0 199 -252 198h-18v-407z" />
<glyph unicode="C" horiz-adv-x="1675" d="M45 643q0 303 228.5 485.5t609.5 182.5q274 0 450 -133v98h236v-432h-205l-199 278q-207 0 -340 -138t-133 -351q0 -219 110.5 -345t284.5 -126q104 0 181 31q0 147 83 223t210 76h32v-320q-274 -190 -690 -190q-383 0 -620.5 183t-237.5 478z" />
<glyph unicode="D" horiz-adv-x="1949" d="M82 0v186h135v916h-135v186h1034q365 0 577 -178t212 -467t-211 -466t-576 -177h-1036zM856 127h21q188 0 297.5 133t109.5 385q0 250 -106.5 384t-288.5 134h-33v-1036z" />
<glyph unicode="E" horiz-adv-x="1650" d="M82 0v186h135v916h-135v186h1442v-403h-148l-200 256h-326v-408h209v146h145v-445h-145v152h-209v-439h412q0 145 69.5 228.5t202.5 83.5h31v-459h-1483z" />
<glyph unicode="F" horiz-adv-x="1605" d="M82 0v186h135v916h-135v186h1442v-403h-148l-200 256h-326v-449h260v166h145v-473h-145v160h-260v-359h135v-186h-903z" />
<glyph unicode="G" horiz-adv-x="1763" d="M45 643q0 301 237.5 484.5t620.5 183.5q137 0 267 -45t184 -105v115h235v-391h-205l-219 237q-229 -4 -351 -137t-122 -352q0 -217 119 -354.5t305 -137.5v330h-127v186h733v-186h-120v-278q-287 -211 -699 -211q-383 0 -620.5 183t-237.5 478z" />
<glyph unicode="H" horiz-adv-x="2101" d="M82 0v186h135v916h-135v186h872v-186h-104v-309h401v309h-104v186h872v-186h-135v-916h135v-186h-872v186h104v410h-401v-410h104v-186h-872z" />
<glyph unicode="I" horiz-adv-x="1058" d="M92 0v186h135v916h-135v186h875v-186h-105v-916h105v-186h-875z" />
<glyph unicode="J" horiz-adv-x="1460" d="M66 514l6 4q182 -8 278 -105q87 -88 87 -239q0 -16 -1 -33q102 16 148.5 71.5t46.5 184.5v705h-156v186h924v-186h-135v-619q0 -244 -173 -375t-454 -131q-334 0 -499 161q-106 103 -106 229q1 70 34 147z" />
<glyph unicode="K" horiz-adv-x="1966" d="M82 0v186h135v916h-135v186h883v-186h-115v-465l430 465h-166v186h631v-186h-176q-199 -180 -201 -180l598 -883v-39h-688l-338 535l-90 -82v-267h115v-186h-883z" />
<glyph unicode="L" horiz-adv-x="1601" d="M82 0v186h135v916h-135v186h903v-186h-135v-955h313q0 184 87 296t233 112h33v-555h-1434z" />
<glyph unicode="M" horiz-adv-x="2353" d="M82 0v186h135v916h-135v186h799l276 -672l270 672h844v-186h-135v-916h135v-186h-870v186h102v834l-403 -1020h-312l-426 1012v-826h125v-186h-405z" />
<glyph unicode="N" horiz-adv-x="1847" d="M82 0v207h156v854h-136v227h717l625 -725v518h-166v207h487v-207h-155v-1081h-400l-807 944v-737h166v-207h-487z" />
<glyph unicode="O" horiz-adv-x="1751" d="M55 643q0 283 240 474.5t590 191.5q371 0 591 -181.5t220 -484.5q0 -299 -221.5 -480t-587.5 -181q-360 0 -596 187t-236 474zM709 641q0 -180 103 -292.5t267 -112.5q168 0 268.5 110.5t100.5 298.5q0 180 -102.5 294t-266.5 114q-166 0 -268 -114t-102 -298z" />
<glyph unicode="P" horiz-adv-x="1720" d="M82 0v186h135v916h-135v186h510q72 0 232.5 8.5t244.5 8.5q293 0 449.5 -114t156.5 -325q0 -219 -185 -331.5t-585 -112.5l-55 4v-240h156v-186h-924zM850 559h33q139 0 218 79t79 212q0 135 -81 215t-222 80h-27v-586z" />
<glyph unicode="Q" horiz-adv-x="1751" d="M55 643q0 283 240 475.5t590 192.5q371 0 591 -179.5t220 -482.5q0 -186 -99.5 -325.5t-269.5 -221.5l428 -120l-184 -340l-486 358q-100 -18 -157 -18q-395 0 -634 185t-239 476zM709 641q0 -180 103 -292.5t267 -112.5q168 0 268.5 110.5t100.5 298.5q0 180 -102.5 294 t-266.5 114q-166 0 -268 -114t-102 -298z" />
<glyph unicode="R" horiz-adv-x="1781" d="M82 0v186h135v916h-135v186h567q125 0 235.5 3t168.5 3q209 0 313 -89t104 -230q0 -109 -88 -186.5t-219 -98.5q209 -41 324 -153.5t112 -333.5l150 -41l-27 -170q-39 -3 -74 -3q-202 0 -300 99q-37 37 -68 99.5t-55.5 120t-57 113.5t-91 94t-140.5 46l-86 8v-383h135 v-186h-903zM850 700l41 5q109 10 171 73.5t62 171.5q0 104 -66.5 168t-187.5 64h-20v-482z" />
<glyph unicode="S" horiz-adv-x="1509" d="M82 872q0 197 164 318t442 121q289 0 430 -107v84h219v-375h-186l-272 252q-88 -8 -126 -38.5t-38 -88.5q0 -33 40 -58.5t103 -43.5l141 -40q78 -22 156 -56.5t141.5 -81.5t103.5 -126t40 -181q0 -215 -174 -342t-480 -127q-309 0 -462 114v-90h-236v381h178l318 -276 q121 12 160.5 45.5t39.5 105.5q0 63 -72.5 110.5t-175 84.5t-206 83t-176 130.5t-72.5 201.5z" />
<glyph unicode="T" horiz-adv-x="1691" d="M86 844v444h1520v-444h-148l-221 291h-59v-949h114v-186h-862v186h115v949h-90l-222 -291h-147z" />
<glyph unicode="U" horiz-adv-x="1726" d="M61 1102v186h883v-186h-115v-572q0 -156 72 -228.5t227 -72.5q119 0 187.5 80t68.5 215v557h-145v207h447v-207h-136v-557q0 -252 -175 -397t-466 -145q-713 0 -712 606v514h-136z" />
<glyph unicode="V" d="M61 1102v186h965v-186h-156l332 -705l299 684h-153v207h491v-207h-147l-490 -1081h-459l-546 1102h-136z" />
<glyph unicode="W" horiz-adv-x="2603" d="M61 1102l2 186h936l-2 -186h-147l221 -582l305 768l271 2l374 -798l197 589h-166l2 207h488l-2 -207h-140l-370 -1081h-400l-311 684l-270 -684h-400l-459 1102h-129z" />
<glyph unicode="X" horiz-adv-x="1798" d="M45 1104v186h965v-186h-136l216 -279l215 258h-150v207h545v-207h-146l-372 -374l436 -523h135v-186h-985v186h135l-207 271l-223 -250h150v-207h-545v207h145l379 364l-442 533h-115z" />
<glyph unicode="Y" horiz-adv-x="1720" d="M37 1102v186h848v-186h-137l270 -393l252 372h-180v207h565v-207h-162l-360 -520v-375h135v-186h-822v186h136v340l-420 576h-125z" />
<glyph unicode="Z" horiz-adv-x="1687" d="M143 0v166l758 969h-319l-250 -328h-148v481h1403v-166l-758 -968h431q0 156 78.5 240.5t215.5 84.5h31v-479h-1442z" />
<glyph unicode="[" horiz-adv-x="1189" d="M186 -385v1858h871v-289l-606 123v-1526l606 123v-289h-871z" />
<glyph unicode="\" horiz-adv-x="757" d="M-68 1473h207l758 -1858h-207z" />
<glyph unicode="]" horiz-adv-x="1189" d="M133 -96l606 -123v1526l-606 -123v289h871v-1858h-871v289z" />
<glyph unicode="^" horiz-adv-x="882" d="M129 961l180 327h266l179 -327h-52l-262 143l-260 -143h-51z" />
<glyph unicode="_" horiz-adv-x="1388" d="M82 -63h1225v-218h-1225v218z" />
<glyph unicode="`" horiz-adv-x="1021" d="M147 1196v21h437l110 -308h-49z" />
<glyph unicode="a" horiz-adv-x="1320" d="M45 223q0 117 96.5 186.5t268.5 69.5q154 0 260 -67q0 86 -69 128q-61 37 -147 37h-21q-99 -5 -202 -47q-2 0 -20 58l-37 114l-18 58q203 88 440 88q281 0 425 -116t144 -365v-181l144 41v-227h-553l-47 145q-102 -168 -353 -168q-137 0 -224 66.5t-87 179.5zM408 238 q0 -39 29.5 -62.5t82.5 -23.5q55 0 99.5 31.5t60.5 88.5q-68 55 -150 56q-57 0 -89.5 -24.5t-32.5 -65.5z" />
<glyph unicode="b" horiz-adv-x="1501" d="M20 1186v250h637v-713q113 125 324 125q207 0 341 -119t134 -313.5t-137 -314t-346 -119.5q-268 0 -369 192l-69 -174h-469v186h102v1069zM655 420q0 -98 36 -152.5t102 -54.5q72 0 111.5 52t39.5 151q0 205 -151 205q-66 0 -102 -53.5t-36 -147.5z" />
<glyph unicode="c" horiz-adv-x="1212" d="M45 410q0 195 134 316.5t351 121.5q129 0 220.5 -49t132.5 -135l88 163h174v-397h-301q-8 63 -49 108.5t-113 45.5q-76 0 -118 -47.5t-42 -128.5q0 -78 50.5 -126.5t134.5 -48.5q139 0 206 136l254 -119q-141 -272 -544 -273q-270 0 -424 116t-154 317z" />
<glyph unicode="d" horiz-adv-x="1495" d="M45 415.5q0 194.5 137 313.5t346 119q203 0 316 -113v518l-312 -79v262h801v-1250h101v-186h-469l-70 172q-96 -190 -367 -190q-209 0 -346 119.5t-137 314zM557 416q0 -98 40 -150.5t112 -52.5q66 0 101.5 54.5t35.5 152.5q0 94 -36 147.5t-101 53.5q-152 0 -152 -205z " />
<glyph unicode="e" horiz-adv-x="1323" d="M45 412q0 195 155.5 315.5t407.5 120.5q231 0 391 -141l181 129l106 -185l-659 -387q47 -29 112 -28q188 0 330 198l211 -176q-223 -281 -618 -281q-283 0 -450 117t-167 318zM518 440q0 -41 14 -71l259 186q-39 61 -119 61q-72 0 -113 -47t-41 -129z" />
<glyph unicode="f" horiz-adv-x="868" d="M25 641v186h157v197q0 225 107.5 371.5t320.5 146.5q125 0 203 -71.5t78 -184.5q0 -96 -66.5 -162.5t-167 -66.5t-167 64.5t-76.5 148.5h-27q14 -96 74.5 -184.5t140.5 -139.5q68 -43 68 -55v-64h157v-186h-157v-455h114v-186h-710v186h108v455h-157z" />
<glyph unicode="g" horiz-adv-x="1501" d="M45 426q0 188 132 304t341 116q262 0 365 -164l45 145h512v-186h-109v-405q0 -281 -169 -409t-539 -128q-272 0 -478 78l60 198q174 -63 340 -63q299 0 299 194v33q-98 -117 -326 -116q-209 0 -341 109.5t-132 293.5zM563 422q0 -182 148 -182q63 0 98 46t35 132 q0 90 -35 139t-98 49q-148 0 -148 -184z" />
<glyph unicode="h" horiz-adv-x="1519" d="M20 1186v250h635v-762q109 174 349 174q170 0 269 -101.5t99 -289.5v-271h107v-186h-658v186h64v269q0 123 -99 123q-63 0 -97 -47.5t-34 -168.5v-176h60v-186h-649v186h102v1069z" />
<glyph unicode="i" horiz-adv-x="835" d="M84 0v186h109v455h-109v186h594v-641h108v-186h-702zM150 1146.5q0 108.5 74.5 178.5t191 70t191.5 -70t75 -178.5t-75 -178t-191.5 -69.5t-191 69.5t-74.5 178z" />
<glyph unicode="j" horiz-adv-x="763" d="M0 -207q109 61 139.5 110.5t30.5 182.5v555h-109v186h594v-622q0 -250 -134 -372t-464 -150zM127 1146.5q0 108.5 74.5 178.5t191.5 70t191.5 -70t74.5 -178.5t-74.5 -178t-191.5 -69.5t-191.5 69.5t-74.5 178z" />
<glyph unicode="k" horiz-adv-x="1556" d="M20 1186v250h637v-1043l244 197h-164v237h613v-237h-222l338 -404h60v-186h-705v186h68l-98 125q0 2 -56 -41l-106 -84h100v-186h-663v186h102v1069z" />
<glyph unicode="l" horiz-adv-x="821" d="M-2 1186v250h657v-1250h101v-186h-690v186h100v1069z" />
<glyph unicode="m" horiz-adv-x="2160" d="M61 0v186h109v455h-109v186h512l52 -188q106 209 352 209q242 0 319 -205q109 205 359 205q168 0 263 -101.5t95 -291.5v-269h107v-186h-647v186h59v277q0 123 -92 123q-111 0 -111 -158v-242h55v-186h-589v186h59v277q0 123 -92 123q-86 0 -111 -105v-295h56v-186h-646z " />
<glyph unicode="n" horiz-adv-x="1521" d="M61 0v186h109v455h-109v186h492l63 -227q98 248 390 248q170 0 269 -101.5t99 -289.5v-271h107v-186h-658v186h64v269q0 123 -99 123q-53 0 -84.5 -33t-46.5 -119v-240h60v-186h-656z" />
<glyph unicode="o" horiz-adv-x="1187" d="M45 411.5q0 196.5 153.5 319.5t403.5 123q238 0 389.5 -124t151.5 -318.5t-153.5 -317.5t-397.5 -123q-248 0 -397.5 122t-149.5 318.5zM569 412q0 -86 57.5 -142.5t145.5 -56.5q86 0 144.5 58.5t58.5 146.5t-57.5 143t-145.5 55q-90 0 -146.5 -57t-56.5 -147z" />
<glyph unicode="p" horiz-adv-x="1482" d="M41 -94h109v735h-109v186h512l41 -141q113 162 358 162q209 0 346.5 -119t137.5 -313.5t-137.5 -314t-346.5 -119.5q-215 0 -315 139v-215h98v-187h-694v187zM637 377q16 -164 135 -164q72 0 112 52t40 151q0 205 -152 205q-119 0 -135 -160v-84z" />
<glyph unicode="q" horiz-adv-x="1501" d="M45 415.5q0 194.5 137 313.5t346 119q246 0 359 -162l41 141h512v-186h-109v-735h109v-187h-695v187h99v213q-100 -137 -316 -137q-209 0 -346 119.5t-137 314zM557 416q0 -98 40 -150.5t112 -52.5q66 0 101.5 54.5t35.5 152.5q0 94 -36 147.5t-101 53.5 q-152 0 -152 -205z" />
<glyph unicode="r" horiz-adv-x="1191" d="M53 0v186h92v455h-92v186h576v-206q96 227 301 227q102 0 165.5 -63.5t63.5 -166.5q0 -111 -77.5 -175t-204.5 -64h-15v2q-18 63 -87 106q-55 35 -117 35q-15 0 -29 -2v-334h112v-186h-688z" />
<glyph unicode="s" horiz-adv-x="1185" d="M57 551q0 123 106.5 210t315.5 87q268 0 391 -96v75h224v-270h-176l-187 154q-94 0 -94 -70q0 -31 31.5 -44t154.5 -44q322 -80 322 -274q0 -125 -106.5 -213.5t-315.5 -88.5q-266 0 -391 99v-76h-244v270h176l207 -155q94 0 94 55q0 31 -44 52.5t-163 62.5 q-76 25 -116.5 42t-91 49t-72 75t-21.5 100z" />
<glyph unicode="t" horiz-adv-x="825" d="M-6 641v186h147v267l477 82v-349h179v-186h-183v-338q0 -113 101 -113q49 0 82 17v-160q-90 -66 -285 -65q-188 0 -279.5 87t-91.5 275v297h-147z" />
<glyph unicode="u" horiz-adv-x="1501" d="M41 641v186h594v-454q0 -123 98 -123q53 0 86 32.5t45 118.5v240h-100v186h588v-641h108v-186h-512l-57 195q-104 -215 -375 -215q-170 0 -269.5 101t-99.5 290v270h-106z" />
<glyph unicode="v" horiz-adv-x="1384" d="M10 641v186h805v-186h-100l184 -332l154 332h-129v186h450v-186h-117l-352 -641h-395l-393 641h-107z" />
<glyph unicode="w" horiz-adv-x="1959" d="M10 641v186h703v-186h-86l157 -266l131 219l-137 233h496l246 -440l120 254h-133v186h443v-186h-113l-348 -641h-223l-267 451l-69 -113l-139 -225l-70 -113h-223l-394 641h-94z" />
<glyph unicode="x" horiz-adv-x="1396" d="M31 641v186h800v-186h-96l162 -160l141 160h-123v186h433v-186h-113q-211 -223 -223 -233l252 -222h102v-186h-801v186h97l-162 156l-37 -39l-70 -78l-37 -39h125v-186h-432v186h111l217 240l-244 215h-102z" />
<glyph unicode="y" horiz-adv-x="1413" d="M23 641v186h595v-442q0 -123 95 -123q86 0 106 100v279h-80v186h568v-594q0 -279 -169 -406.5t-540 -127.5q-272 0 -477 78l59 198q174 -63 340 -63q299 0 299 194v66q-115 -152 -327 -152q-168 0 -264.5 103.5t-96.5 296.5v221h-108z" />
<glyph unicode="z" horiz-adv-x="1236" d="M63 0v145l506 519h-207l-102 -215h-158v378h1078v-145l-506 -518h282q45 233 207 233h25v-397h-1125z" />
<glyph unicode="{" horiz-adv-x="1435" d="M68 135v815h16l238 -334l313 777q162 78 299 94q48 6 107 6q111 0 262 -20v-289l-379 153q-96 -354 -193.5 -507.5t-318.5 -278.5q-4 -2 -4 -7t4 -7q221 -125 318 -279t194 -508l379 154v-289q-151 -20 -262 -20q-59 0 -107 6q-137 16 -299 94l-313 774l-238 -334h-16z " />
<glyph unicode="|" horiz-adv-x="473" d="M143 -385v1858h187v-1858h-187z" />
<glyph unicode="}" horiz-adv-x="1435" d="M133 1184v289q145 20 267 19q69 0 131 -6q171 -17 331 -93q254 -772 254 -775l236 332h16v-815h-16l-236 332l-254 -772q-160 -76 -331 -93q-62 -6 -131 -7q-122 0 -267 20v289l440 -154q96 356 132 440q72 174 215 279q45 33 104 68q4 2 4 7t-4 7q-72 41 -123 80t-90 86 t-65.5 94t-52 117.5t-46 140.5l-49.5 176l-25 92z" />
<glyph unicode="~" horiz-adv-x="1019" d="M129 266l10 92q14 127 57.5 180.5t135.5 53.5q74 0 182.5 -43t120.5 -43q18 0 25.5 7t11.5 32l6 37h213l-10 -93q-14 -127 -57.5 -180t-135.5 -53q-74 0 -182.5 43t-120.5 43q-18 0 -27.5 -7t-11.5 -32l-4 -37h-213z" />
<glyph unicode="&#xa1;" horiz-adv-x="933" d="M55 307q0 145 121 257t281 179h41q156 -63 268.5 -175.5t112.5 -260.5q0 -154 -114 -242t-298 -88t-298 88t-114 242zM213 1069q0 104 70.5 173t183.5 69t183.5 -68.5t70.5 -173.5q0 -106 -70.5 -175t-183.5 -69t-183.5 69t-70.5 175z" />
<glyph unicode="&#xa2;" horiz-adv-x="1376" d="M55 614q0 197 155 318t394 135l-92 215h371l-95 -219q412 -37 496 -365v-6q-119 -60 -216 -60q-64 0 -118 26q-135 67 -159 237q-211 -74 -211 -266q0 -86 54 -145.5t148 -59.5q150 0 224 133l284 -106q-133 -236 -497 -269l84 -205h-371l84 205q-242 20 -388.5 134 t-146.5 298z" />
<glyph unicode="&#xa3;" horiz-adv-x="1722" d="M76 160q0 88 72.5 144t187.5 56q154 0 280 -69q-14 33 -39.5 70.5t-69.5 94l-65 85.5l-303 -47v196l221 -24q-63 117 -63 219q0 213 170 340t477 127q274 0 428 -84t154 -240q0 -102 -64.5 -167.5t-204.5 -102.5q-4 104 -63 156.5t-145 52.5q-90 0 -140.5 -49.5 t-50.5 -137.5q0 -29 16 -114l347 24v-196l-330 36q0 -154 -127 -260q209 117 297 117q96 0 188 -38t173 -90t100 -60q-53 95 -54 179q0 26 6 50q22 104 123 104q55 0 90 -40.5t35 -98.5q0 -154 -140 -296t-353 -142q-104 0 -273.5 77t-257.5 156q-205 -213 -411 -213 q-82 0 -146.5 48.5t-64.5 136.5z" />
<glyph unicode="&#xa4;" horiz-adv-x="1757" d="M41 616v197l182 -33q55 246 281.5 388.5t539.5 142.5q199 0 345.5 -48.5t285.5 -144.5v-319h-33q-147 0 -272 82t-153 241q-145 0 -244 -91t-129 -255l448 37v-197q-459 57 -461 58v-41q0 -35 5 -101l288 35v-196l-268 51q72 -260 311 -260q74 0 142 31q0 145 105.5 222 t248.5 77h33v-320q-274 -190 -633 -190q-283 0 -504 118.5t-307 321.5l-211 -51v196l178 -30q-10 57 -10 106v14z" />
<glyph unicode="&#xa5;" horiz-adv-x="1720" d="M47 1102v186h827v-186h-137l277 -316l266 295h-180v207h573v-207h-162l-274 -317l385 29v-238l-479 55v-161l479 36v-237l-479 55v-117h135v-186h-821v186h135l2 117l-451 -55v237l447 -39v164l-447 -55v238q371 -31 371 -33l-342 342h-125z" />
<glyph unicode="&#xa7;" horiz-adv-x="1873" d="M61 748q0 246 228.5 414.5t664.5 168.5q195 0 336.5 -25.5t221 -73.5t121.5 -95t71 -113v-4q-90 -98 -213 -120q-42 -7 -82 -7q-76 0 -144 27q-103 41 -182 113.5t-96 150.5q-139 -49 -139 -148q0 -47 53 -84t138 -65.5t188.5 -59t207 -75.5t188.5 -104.5t138.5 -155 t53.5 -216.5q0 -246 -228.5 -414.5t-664.5 -168.5q-190 0 -330.5 26.5t-222.5 74.5t-126 96.5t-73 111.5v4q90 98 213 120q42 7 82 7q76 0 145 -27q104 -41 183 -114.5t96 -151.5q139 49 139 148q0 47 -53 84t-138 65.5t-188.5 59t-207 75.5t-188.5 104.5t-138.5 155 t-53.5 216.5zM371 797q0 -94 51 -164t132 -110t179 -71l198 -62q99 -30 180 -66.5t132 -98t51 -147.5q0 -113 -84 -180q295 111 295 329q0 94 -51 164t-132 110t-180 71l-198 62q-98 30 -179 66.5t-132 98t-51 147.5q0 113 84 180q-295 -110 -295 -329z" />
<glyph unicode="&#xa8;" horiz-adv-x="1021" d="M90 1067q0 78 53.5 128t137.5 50t138 -50t54 -128t-54 -128t-138 -50t-137.5 50t-53.5 128zM549 1067q0 78 54 128t138 50t137.5 -50t53.5 -128t-53.5 -128t-137.5 -50t-138 50t-54 128z" />
<glyph unicode="&#xa9;" horiz-adv-x="1789" d="M55 639q0 309 238.5 516t593.5 207q379 0 613.5 -199.5t234.5 -523.5q0 -319 -237.5 -522t-610.5 -203q-362 0 -597 205t-235 520zM178 639q0 -270 200 -444.5t509 -174.5q322 0 523.5 172.5t201.5 446.5q0 279 -197.5 447.5t-527.5 168.5q-305 0 -507 -175t-202 -441z M410 635q0 166 138 266t369 100q164 0 273 -71v53h141v-238h-123l-121 154q-125 0 -205.5 -75.5t-80.5 -194.5q0 -121 66.5 -189.5t172.5 -68.5q70 0 109 16q35 164 178 164h21v-176q-168 -104 -420 -105q-231 0 -374.5 100.5t-143.5 264.5z" />
<glyph unicode="&#xaa;" horiz-adv-x="710" d="M25 909q0 70 51 112t141 42q78 0 135 -39q0 78 -80 95q-24 5 -47 5q-56 0 -114 -28l-41 137q119 53 239 53q315 0 316 -289v-110l77 24v-139h-303l-26 88q-53 -102 -185 -102q-72 0 -117.5 41.5t-45.5 109.5zM207 915q0 -51 63 -51q68 0 86 74q-31 35 -82 35 q-67 -1 -67 -58z" />
<glyph unicode="&#xab;" horiz-adv-x="1007" d="M45 307v185l426 284v-305l-121 -72l121 -71v-305zM516 307v185l447 325v-336l-121 -82l121 -82v-335z" />
<glyph unicode="&#xad;" horiz-adv-x="884" d="M117 160v278l651 328v-279z" />
<glyph unicode="&#xae;" horiz-adv-x="1789" d="M55 639q0 309 238.5 516t593.5 207q379 0 613.5 -199.5t234.5 -523.5q0 -319 -237.5 -522t-610.5 -203q-362 0 -597 205t-235 520zM178 639q0 -270 200 -444.5t509 -174.5q322 0 523.5 172.5t201.5 446.5q0 279 -197.5 447.5t-527.5 168.5q-305 0 -507 -175t-202 -441z M430 287v102h84v504h-84v102h344q74 0 142.5 2t101.5 2q125 0 188.5 -49t63.5 -127q0 -59 -52.5 -102t-132.5 -55q127 -23 197 -84.5t68 -184.5l90 -22l-17 -92q-25 -2 -47 -2q-120 0 -180 55q-27 23 -50.5 70t-39.5 83.5t-56 69.5t-102 37l-51 4v-211h80v-102h-547z M897 672l25 2q66 6 102.5 41t36.5 94q0 57 -40 92t-114 35h-10v-264z" />
<glyph unicode="&#xaf;" horiz-adv-x="1019" d="M178 958v226h664v-226h-664z" />
<glyph unicode="&#x2c9;" horiz-adv-x="1019" d="M178 958v226h664v-226h-664z" />
<glyph unicode="&#xb0;" horiz-adv-x="1148" d="M74 917.5q0 167.5 144 280.5t360 113q211 0 354 -114t143 -279.5t-144.5 -278.5t-355.5 -113q-213 0 -357 112t-144 279.5zM381 917.5q0 -73.5 51 -114.5t143 -41q88 0 139.5 42t51.5 113.5t-50 113.5t-138 42q-92 0 -144.5 -41t-52.5 -114.5z" />
<glyph unicode="&#xb2;" horiz-adv-x="1622" d="M80 848q0 223 189.5 347t512.5 124q371 0 570.5 -119t199.5 -336q0 -94 -42 -164.5t-103 -112.5t-160.5 -77t-184.5 -52l-205 -42q-120 -25 -195 -47l954 77l-199 -446h-1304l-15 106l418 273q244 160 327 246t83 211q0 119 -66.5 190.5t-191.5 71.5q-80 0 -144 -35 q80 -29 125 -98.5t45 -163.5q0 -121 -85 -197t-216 -76q-143 0 -228 89.5t-85 230.5z" />
<glyph unicode="&#xb3;" horiz-adv-x="1603" d="M61 963q0 168 173.5 258t517.5 90q750 0 749 -336q0 -59 -22.5 -104.5t-52 -70t-82 -42t-90 -24.5t-97.5 -13q385 -72 385 -340q0 -188 -200.5 -296t-569.5 -108q-377 0 -543 94.5t-166 243.5q0 123 74 196t207 73q117 0 190.5 -71t73.5 -177q0 -115 -80 -166 q53 -16 113 -16q119 0 186.5 57t67.5 156q0 125 -61.5 182t-231.5 57v109q158 2 225.5 53t67.5 164q0 96 -61.5 147t-174.5 51q-49 0 -94 -10q57 -68 58 -170q0 -104 -72 -177t-186 -73q-133 0 -218.5 72t-85.5 191z" />
<glyph unicode="&#xb4;" horiz-adv-x="1021" d="M328 909l110 308h436v-21l-497 -287h-49z" />
<glyph unicode="&#xb6;" horiz-adv-x="1679" d="M86 667.5q0 272.5 232.5 446.5t680.5 174h80v-1241h-82q-449 0 -680 174t-231 446.5zM1225 -281l102 265v1304h186v-1569h-288z" />
<glyph unicode="&#xb7;" horiz-adv-x="749" d="M94 436q0 117 78 193t203 76t202.5 -76t77.5 -193t-77.5 -191.5t-202.5 -74.5t-203 74.5t-78 191.5z" />
<glyph unicode="&#x2219;" horiz-adv-x="749" d="M94 436q0 117 78 193t203 76t202.5 -76t77.5 -193t-77.5 -191.5t-202.5 -74.5t-203 74.5t-78 191.5z" />
<glyph unicode="&#xb8;" horiz-adv-x="1042" d="M223 -381l60 127q147 -53 256 -53q106 0 106 47t-94 47q-47 0 -82 -18l-4 4v227h145v-76q16 4 52 4q121 0 187 -48t66 -138q0 -94 -89 -148.5t-248 -54.5q-185 0 -355 80z" />
<glyph unicode="&#xb9;" horiz-adv-x="1386" d="M86 823v240q133 0 210 9t124 39t67.5 65.5t44.5 111.5l58 2l459 -2v-764q0 -184 52 -248.5t193 -64.5h21v-211h-1178v211q170 0 269.5 67.5t99.5 239.5q0 152 -108.5 228.5t-293.5 76.5h-18z" />
<glyph unicode="&#xba;" horiz-adv-x="653" d="M25 1008q0 117 86 192.5t221 75.5q131 0 214 -76t83 -192q0 -119 -84 -194t-217 -75q-137 0 -220 75t-83 194zM313 1008q0 -53 32 -87t81 -34q47 0 79 34.5t32 88t-32 88.5t-79 35q-49 0 -81 -35t-32 -90z" />
<glyph unicode="&#xbb;" horiz-adv-x="1007" d="M45 -18v335l121 82l-121 82v336l447 -325v-185zM537 23v305l120 71l-120 72v305l426 -284v-185z" />
<glyph unicode="&#xbf;" horiz-adv-x="933" d="M47 301q0 109 69.5 180.5t160 103t219.5 83t204 106.5l66 -41q-20 -78 -73.5 -173t-53.5 -150q0 -154 227 -154v-215q-182 -63 -377 -64q-215 0 -328.5 87t-113.5 237zM344 1090q0 104 70.5 172.5t183.5 68.5t183.5 -68.5t70.5 -172.5q0 -106 -70.5 -175t-183.5 -69 t-183.5 69t-70.5 175z" />
<glyph unicode="&#xc0;" d="M61 0v207h154l406 1081h634l428 -1102h156v-186h-965v186h136l-103 303h-411l-99 -282h148v-207h-484zM485 1636v21h437l110 -307h-49zM559 666h287l-141 413z" />
<glyph unicode="&#xc1;" d="M61 0v207h154l406 1081h634l428 -1102h156v-186h-965v186h136l-103 303h-411l-99 -282h148v-207h-484zM559 666h287l-141 413zM748 1350l110 307h436v-21l-497 -286h-49z" />
<glyph unicode="&#xc2;" d="M61 0v207h154l406 1081h634l428 -1102h156v-186h-965v186h136l-103 303h-411l-99 -282h148v-207h-484zM559 666h287l-141 413zM621 1350l180 307h266l178 -307h-51l-262 143l-260 -143h-51z" />
<glyph unicode="&#xc3;" d="M61 0v207h154l406 1081h634l428 -1102h156v-186h-965v186h136l-103 303h-411l-99 -282h148v-207h-484zM559 666h287l-141 413zM569 1360l11 92q14 123 56 168t136 45q72 0 182.5 -43t120.5 -43q18 0 25.5 7t11.5 32l6 37h213l-10 -92q-14 -123 -56 -168t-137 -45 q-72 0 -182 43t-121 43q-18 0 -27.5 -7.5t-11.5 -31.5l-4 -37h-213z" />
<glyph unicode="&#xc4;" d="M61 0v207h154l406 1081h634l428 -1102h156v-186h-965v186h136l-103 303h-411l-99 -282h148v-207h-484zM489 1507.5q0 77.5 53.5 128t137.5 50.5t138 -50.5t54 -128t-54 -128t-138 -50.5t-137.5 50.5t-53.5 128zM559 666h287l-141 413zM948 1507.5q0 77.5 54.5 128 t138.5 50.5t137 -50.5t53 -128t-53 -128t-137 -50.5t-138.5 50.5t-54.5 128z" />
<glyph unicode="&#xc5;" d="M61 0v207h154l406 1081h38q-18 39 -18 90q0 106 81 170t214 64t214 -63.5t81 -170.5q0 -51 -19 -90h43l428 -1102h156v-186h-965v186h136l-103 303h-411l-99 -282h148v-207h-484zM559 666h287l-141 413zM846 1378q0 -37 23.5 -61.5t58.5 -28.5h14q35 4 59.5 28.5 t24.5 61.5q0 39 -25.5 64.5t-64.5 25.5t-64.5 -25.5t-25.5 -64.5z" />
<glyph unicode="&#xc6;" horiz-adv-x="2316" d="M61 0v207h154l571 895h-249v186h1652v-403h-147l-162 278h-303v-430h147v146h146v-445h-146v152h-147v-457h350q0 158 69.5 244t203.5 86h30v-459h-1401v186h136v303h-390l-172 -282h148v-207h-490zM686 666h279v436h-11z" />
<glyph unicode="&#xc7;" horiz-adv-x="1675" d="M45 643q0 303 228.5 485.5t609.5 182.5q274 0 450 -133v98h236v-432h-205l-199 278q-207 0 -340 -138t-133 -351q0 -219 110.5 -345t284.5 -126q104 0 181 31q0 147 83 223t210 76h32v-320q-264 -184 -665 -190v-58q16 4 51 4q121 0 187.5 -48t66.5 -138 q0 -94 -89 -148.5t-249 -54.5q-184 0 -354 80l59 127q147 -53 256 -53q106 0 106.5 47t-94.5 47q-49 0 -82 -18l-4 4v215q-334 29 -535.5 207t-201.5 448z" />
<glyph unicode="&#xc8;" horiz-adv-x="1650" d="M82 0v186h135v916h-135v186h1442v-403h-148l-200 256h-326v-408h209v146h145v-445h-145v152h-209v-439h412q0 145 69.5 228.5t202.5 83.5h31v-459h-1483zM463 1636v21h436l111 -307h-49z" />
<glyph unicode="&#xc9;" horiz-adv-x="1650" d="M82 0v186h135v916h-135v186h1442v-403h-148l-200 256h-326v-408h209v146h145v-445h-145v152h-209v-439h412q0 145 69.5 228.5t202.5 83.5h31v-459h-1483zM745 1350l111 307h436v-21l-497 -286h-50z" />
<glyph unicode="&#xca;" horiz-adv-x="1650" d="M82 0v186h135v916h-135v186h1442v-403h-148l-200 256h-326v-408h209v146h145v-445h-145v152h-209v-439h412q0 145 69.5 228.5t202.5 83.5h31v-459h-1483zM555 1350l180 307h266l179 -307h-52l-262 143l-260 -143h-51z" />
<glyph unicode="&#xcb;" horiz-adv-x="1650" d="M82 0v186h135v916h-135v186h1442v-403h-148l-200 256h-326v-408h209v146h145v-445h-145v152h-209v-439h412q0 145 69.5 228.5t202.5 83.5h31v-459h-1483zM467 1507.5q0 77.5 53 128t137 50.5t138.5 -50.5t54.5 -128t-54.5 -128t-138.5 -50.5t-137 50.5t-53 128z M926 1507.5q0 77.5 54 128t138 50.5t137.5 -50.5t53.5 -128t-53.5 -128t-137.5 -50.5t-138 50.5t-54 128z" />
<glyph unicode="&#xcc;" horiz-adv-x="1058" d="M92 0v186h135v916h-135v186h875v-186h-105v-916h105v-186h-875zM104 1636v21h437l110 -307h-49z" />
<glyph unicode="&#xcd;" horiz-adv-x="1058" d="M92 0v186h135v916h-135v186h875v-186h-105v-916h105v-186h-875zM408 1350l110 307h436v-21l-497 -286h-49z" />
<glyph unicode="&#xce;" horiz-adv-x="1058" d="M92 0v186h135v916h-135v186h875v-186h-105v-916h105v-186h-875zM236 1350l180 307h266l178 -307h-51l-262 143l-260 -143h-51z" />
<glyph unicode="&#xcf;" horiz-adv-x="1058" d="M92 0v186h135v916h-135v186h875v-186h-105v-916h105v-186h-875zM109 1507.5q0 77.5 53 128t137 50.5t138.5 -50.5t54.5 -128t-54.5 -128t-138.5 -50.5t-137 50.5t-53 128zM567 1507.5q0 77.5 54.5 128t138.5 50.5t137 -50.5t53 -128t-53 -128t-137 -50.5t-138.5 50.5 t-54.5 128z" />
<glyph unicode="&#xd0;" horiz-adv-x="1970" d="M41 555v197l197 -23v373h-136v186h1035q365 0 576.5 -178t211.5 -467t-211 -466t-575 -177h-1037v186h136v400zM877 127h20q188 0 298 133t110 385q0 250 -106.5 384t-289.5 134h-32v-432l276 21v-197l-46 5l-89 10q-61 7 -100 12l-41 4v-459z" />
<glyph unicode="&#xd1;" horiz-adv-x="1847" d="M82 0v207h156v854h-136v227h717l625 -725v518h-166v207h487v-207h-155v-1081h-400l-807 944v-737h166v-207h-487zM543 1360l10 92q14 123 56 168t136 45q74 0 182.5 -43t121.5 -43q18 0 25 7t11 32l7 37h213l-11 -92q-14 -123 -56 -168t-136 -45q-74 0 -182.5 43 t-120.5 43q-18 0 -27.5 -7.5t-11.5 -31.5l-4 -37h-213z" />
<glyph unicode="&#xd2;" horiz-adv-x="1751" d="M55 643q0 283 240 474.5t590 191.5q371 0 591 -181.5t220 -484.5q0 -299 -221.5 -480t-587.5 -181q-360 0 -596 187t-236 474zM512 1636v21h436l111 -307h-49zM709 641q0 -180 103 -292.5t267 -112.5q168 0 268.5 110.5t100.5 298.5q0 180 -102.5 294t-266.5 114 q-166 0 -268 -114t-102 -298z" />
<glyph unicode="&#xd3;" horiz-adv-x="1751" d="M55 643q0 283 240 474.5t590 191.5q371 0 591 -181.5t220 -484.5q0 -299 -221.5 -480t-587.5 -181q-360 0 -596 187t-236 474zM709 641q0 -180 103 -292.5t267 -112.5q168 0 268.5 110.5t100.5 298.5q0 180 -102.5 294t-266.5 114q-166 0 -268 -114t-102 -298zM754 1350 l110 307h436v-21l-497 -286h-49z" />
<glyph unicode="&#xd4;" horiz-adv-x="1751" d="M55 643q0 283 240 474.5t590 191.5q371 0 591 -181.5t220 -484.5q0 -299 -221.5 -480t-587.5 -181q-360 0 -596 187t-236 474zM604 1350l180 307h267l178 -307h-51l-263 143l-260 -143h-51zM709 641q0 -180 103 -292.5t267 -112.5q168 0 268.5 110.5t100.5 298.5 q0 180 -102.5 294t-266.5 114q-166 0 -268 -114t-102 -298z" />
<glyph unicode="&#xd5;" horiz-adv-x="1751" d="M55 643q0 283 240 474.5t590 191.5q371 0 591 -181.5t220 -484.5q0 -299 -221.5 -480t-587.5 -181q-360 0 -596 187t-236 474zM535 1360l10 92q14 123 56 168t136 45q74 0 182.5 -43t120.5 -43q18 0 25.5 7t11.5 32l6 37h213l-10 -92q-14 -123 -56 -168t-136 -45 q-74 0 -182.5 43t-120.5 43q-18 0 -27.5 -7.5t-11.5 -31.5l-4 -37h-213zM709 641q0 -180 103 -292.5t267 -112.5q168 0 268.5 110.5t100.5 298.5q0 180 -102.5 294t-266.5 114q-166 0 -268 -114t-102 -298z" />
<glyph unicode="&#xd6;" horiz-adv-x="1751" d="M55 643q0 283 240 474.5t590 191.5q371 0 591 -181.5t220 -484.5q0 -299 -221.5 -480t-587.5 -181q-360 0 -596 187t-236 474zM455 1507.5q0 77.5 53 128t137 50.5t138.5 -50.5t54.5 -128t-54.5 -128t-138.5 -50.5t-137 50.5t-53 128zM709 641q0 -180 103 -292.5 t267 -112.5q168 0 268.5 110.5t100.5 298.5q0 180 -102.5 294t-266.5 114q-166 0 -268 -114t-102 -298zM913 1507.5q0 77.5 54.5 128t138.5 50.5t137 -50.5t53 -128t-53 -128t-137 -50.5t-138.5 50.5t-54.5 128z" />
<glyph unicode="&#xd7;" horiz-adv-x="1021" d="M68 666l190 190l254 -272l254 272l188 -190l-272 -252l272 -254l-190 -191l-252 271l-254 -271l-188 191l270 252z" />
<glyph unicode="&#xd8;" horiz-adv-x="1751" d="M55 643q0 283 240 474.5t590 191.5q293 0 495 -117l179 260h165l-231 -338q203 -178 203 -471q0 -299 -221.5 -480t-587.5 -181q-76 0 -162 10l-147 -215h-166l168 246q-240 70 -382.5 235.5t-142.5 384.5zM709 641q0 -172 98 -287l448 656q-76 43 -176 43 q-166 0 -268 -114t-102 -298zM915 270q76 -35 164 -34q168 0 268.5 110.5t100.5 298.5q0 162 -88 277q-445 -650 -445 -652z" />
<glyph unicode="&#xd9;" horiz-adv-x="1726" d="M61 1102v186h883v-186h-115v-572q0 -156 72 -228.5t227 -72.5q119 0 187.5 80t68.5 215v557h-145v207h447v-207h-136v-557q0 -252 -175 -397t-466 -145q-713 0 -712 606v514h-136zM602 1636v21h436l111 -307h-49z" />
<glyph unicode="&#xda;" horiz-adv-x="1726" d="M61 1102v186h883v-186h-115v-572q0 -156 72 -228.5t227 -72.5q119 0 187.5 80t68.5 215v557h-145v207h447v-207h-136v-557q0 -252 -175 -397t-466 -145q-713 0 -712 606v514h-136zM823 1350l111 307h436v-21l-498 -286h-49z" />
<glyph unicode="&#xdb;" horiz-adv-x="1726" d="M61 1102v186h883v-186h-115v-572q0 -156 72 -228.5t227 -72.5q119 0 187.5 80t68.5 215v557h-145v207h447v-207h-136v-557q0 -252 -175 -397t-466 -145q-713 0 -712 606v514h-136zM756 1350l180 307h266l178 -307h-51l-262 143l-260 -143h-51z" />
<glyph unicode="&#xdc;" horiz-adv-x="1726" d="M61 1102v186h883v-186h-115v-572q0 -156 72 -228.5t227 -72.5q119 0 187.5 80t68.5 215v557h-145v207h447v-207h-136v-557q0 -252 -175 -397t-466 -145q-713 0 -712 606v514h-136zM557 1507.5q0 77.5 53.5 128t137 50.5t138 -50.5t54.5 -128t-54.5 -128t-138 -50.5 t-137 50.5t-53.5 128zM1016 1507.5q0 77.5 54 128t138 50.5t137.5 -50.5t53.5 -128t-53.5 -128t-137.5 -50.5t-138 50.5t-54 128z" />
<glyph unicode="&#xdd;" horiz-adv-x="1720" d="M37 1102v186h848v-186h-137l270 -393l252 372h-180v207h565v-207h-162l-360 -520v-375h135v-186h-822v186h136v340l-420 576h-125zM918 1350l110 307h436v-21l-497 -286h-49z" />
<glyph unicode="&#xde;" horiz-adv-x="1720" d="M82 0v186h135v916h-135v186h872v-186h-104v-107q55 23 219 23q276 0 431 -100.5t155 -268.5q0 -170 -159 -266t-458 -96l-188 12v-113h156v-186h-924zM850 408h53q121 0 188.5 65.5t67.5 169.5q0 109 -69.5 174.5t-192.5 65.5h-47v-475z" />
<glyph unicode="&#xdf;" horiz-adv-x="1560" d="M23 641v186h157v134q0 279 157 431t441 152q225 0 361.5 -98t136.5 -262q0 -274 -295 -320q539 -150 539 -493q0 -182 -114 -288t-308 -106q-172 0 -332 60v160q215 31 215 225q0 72 -55.5 137.5t-151.5 104.5v190q106 55 152.5 108.5t46.5 118.5q0 70 -43 114t-109 44 q-154 0 -153 -199v-1040h-596v186h108v455h-157z" />
<glyph unicode="&#xe0;" horiz-adv-x="1320" d="M45 223q0 117 96.5 186.5t268.5 69.5q154 0 260 -67q0 86 -69 128q-61 37 -147 37h-21q-99 -5 -202 -47q-2 0 -20 58l-37 114l-18 58q203 88 440 88q281 0 425 -116t144 -365v-181l144 41v-227h-553l-47 145q-102 -168 -353 -168q-137 0 -224 66.5t-87 179.5zM297 1196 v21h436l111 -308h-49zM408 238q0 -39 29.5 -62.5t82.5 -23.5q55 0 99.5 31.5t60.5 88.5q-68 55 -150 56q-57 0 -89.5 -24.5t-32.5 -65.5z" />
<glyph unicode="&#xe1;" horiz-adv-x="1320" d="M45 223q0 117 96.5 186.5t268.5 69.5q154 0 260 -67q0 86 -69 128q-61 37 -147 37h-21q-99 -5 -202 -47q-2 0 -20 58l-37 114l-18 58q203 88 440 88q281 0 425 -116t144 -365v-181l144 41v-227h-553l-47 145q-102 -168 -353 -168q-137 0 -224 66.5t-87 179.5zM408 238 q0 -39 29.5 -62.5t82.5 -23.5q55 0 99.5 31.5t60.5 88.5q-68 55 -150 56q-57 0 -89.5 -24.5t-32.5 -65.5zM477 909l111 308h436v-21l-498 -287h-49z" />
<glyph unicode="&#xe2;" horiz-adv-x="1320" d="M45 223q0 117 96.5 186.5t268.5 69.5q154 0 260 -67q0 86 -69 128q-61 37 -147 37h-21q-99 -5 -202 -47q-2 0 -20 58l-37 114l-18 58q203 88 440 88q281 0 425 -116t144 -365v-181l144 41v-227h-553l-47 145q-102 -168 -353 -168q-137 0 -224 66.5t-87 179.5zM348 909 l180 308h267l178 -308h-51l-263 144l-260 -144h-51zM408 238q0 -39 29.5 -62.5t82.5 -23.5q55 0 99.5 31.5t60.5 88.5q-68 55 -150 56q-57 0 -89.5 -24.5t-32.5 -65.5z" />
<glyph unicode="&#xe3;" horiz-adv-x="1320" d="M45 223q0 117 96.5 186.5t268.5 69.5q154 0 260 -67q0 86 -69 128q-61 37 -147 37h-21q-99 -5 -202 -47q-2 0 -20 58l-37 114l-18 58q203 88 440 88q281 0 425 -116t144 -365v-181l144 41v-227h-553l-47 145q-102 -168 -353 -168q-137 0 -224 66.5t-87 179.5zM279 920 l10 92q14 123 56 168t136 45q72 0 182.5 -43t120.5 -43q18 0 25.5 7t11.5 32l6 36h213l-10 -92q-14 -123 -56 -168t-136 -45q-72 0 -182.5 43t-120.5 43q-18 0 -27.5 -7t-11.5 -32l-4 -36h-213zM408 238q0 -39 29.5 -62.5t82.5 -23.5q55 0 99.5 31.5t60.5 88.5 q-68 55 -150 56q-57 0 -89.5 -24.5t-32.5 -65.5z" />
<glyph unicode="&#xe4;" horiz-adv-x="1320" d="M45 223q0 117 96.5 186.5t268.5 69.5q154 0 260 -67q0 86 -69 128q-61 37 -147 37h-21q-99 -5 -202 -47q-2 0 -20 58l-37 114l-18 58q203 88 440 88q281 0 425 -116t144 -365v-181l144 41v-227h-553l-47 145q-102 -168 -353 -168q-137 0 -224 66.5t-87 179.5zM240 1067 q0 78 53 128t137 50t138.5 -50t54.5 -128t-54.5 -128t-138.5 -50t-137 50t-53 128zM408 238q0 -39 29.5 -62.5t82.5 -23.5q55 0 99.5 31.5t60.5 88.5q-68 55 -150 56q-57 0 -89.5 -24.5t-32.5 -65.5zM698 1067q0 78 54.5 128t138.5 50t137 -50t53 -128t-53 -128t-137 -50 t-138.5 50t-54.5 128z" />
<glyph unicode="&#xe5;" horiz-adv-x="1320" d="M45 223q0 117 96.5 186.5t268.5 69.5q154 0 260 -67q0 86 -69 128q-61 37 -147 37h-21q-99 -5 -202 -47q-2 0 -20 58l-37 114l-18 58q203 88 440 88q281 0 425 -116t144 -365v-181l144 41v-227h-553l-47 145q-102 -168 -353 -168q-137 0 -224 66.5t-87 179.5zM365 1153.5 q0 106.5 80.5 170t214 63t214 -63.5t80.5 -169.5t-80.5 -170t-214 -63.5t-214 63.5t-80.5 170zM408 238q0 -39 29.5 -62.5t82.5 -23.5q55 0 99.5 31.5t60.5 88.5q-68 55 -150 56q-57 0 -89.5 -24.5t-32.5 -65.5zM569 1153q0 -39 26 -64.5t64.5 -25.5t64.5 25.5t26 64.5 t-26 64.5t-64.5 25.5t-64.5 -25.5t-26 -64.5z" />
<glyph unicode="&#xe6;" horiz-adv-x="1873" d="M45 223q0 117 96.5 186.5t268.5 69.5q154 0 260 -65q-2 127 -146 155q-43 9 -86 9q-102 0 -207 -48q-2 0 -20 58l-37 114l-18 58q184 88 391 88q233 0 362 -96q113 96 301 96q205 0 349 -158l180 123l106 -184l-663 -367q49 -27 114 -26q190 0 332 198l211 -176 q-223 -281 -608 -281q-334 0 -473 189q-53 -88 -155.5 -138.5t-225.5 -50.5q-152 0 -242 66.5t-90 179.5zM408 238q0 -39 29.5 -62.5t82.5 -23.5q55 0 99.5 31.5t60.5 88.5q-68 55 -150 56q-57 0 -89.5 -24.5t-32.5 -65.5zM1067 430q0 -35 12 -65q8 6 21.5 14t48.5 33l66 46 l65 43q33 22 51 36l19 12q-33 57 -119 57q-80 0 -122 -48t-42 -128z" />
<glyph unicode="&#xe7;" horiz-adv-x="1212" d="M45 410q0 195 134 316.5t351 121.5q129 0 220.5 -49t132.5 -135l88 163h174v-397h-301q-8 63 -49 108.5t-113 45.5q-76 0 -118 -47.5t-42 -128.5q0 -78 50.5 -126.5t134.5 -48.5q139 0 206 136l254 -119q-125 -248 -471 -270v-56q16 4 52 4q121 0 187 -48t66 -138 q0 -94 -89 -148.5t-248 -54.5q-184 0 -355 80l60 127q147 -53 256 -53q106 0 106 47t-94 47q-47 0 -82 -18l-4 4v207q-238 16 -372 130t-134 300z" />
<glyph unicode="&#xe8;" horiz-adv-x="1323" d="M45 412q0 195 155.5 315.5t407.5 120.5q231 0 391 -141l181 129l106 -185l-659 -387q47 -29 112 -28q188 0 330 198l211 -176q-223 -281 -618 -281q-283 0 -450 117t-167 318zM244 1196v21h436l111 -308h-50zM518 440q0 -41 14 -71l259 186q-39 61 -119 61 q-72 0 -113 -47t-41 -129z" />
<glyph unicode="&#xe9;" horiz-adv-x="1323" d="M45 412q0 195 155.5 315.5t407.5 120.5q231 0 391 -141l181 129l106 -185l-659 -387q47 -29 112 -28q188 0 330 198l211 -176q-223 -281 -618 -281q-283 0 -450 117t-167 318zM518 440q0 -41 14 -71l259 186q-39 61 -119 61q-72 0 -113 -47t-41 -129zM547 909l110 308 h437v-21l-498 -287h-49z" />
<glyph unicode="&#xea;" horiz-adv-x="1323" d="M45 412q0 195 155.5 315.5t407.5 120.5q231 0 391 -141l181 129l106 -185l-659 -387q47 -29 112 -28q188 0 330 198l211 -176q-223 -281 -618 -281q-283 0 -450 117t-167 318zM315 909l181 308h266l178 -308h-51l-262 144l-260 -144h-52zM518 440q0 -41 14 -71l259 186 q-39 61 -119 61q-72 0 -113 -47t-41 -129z" />
<glyph unicode="&#xeb;" horiz-adv-x="1323" d="M45 412q0 195 155.5 315.5t407.5 120.5q231 0 391 -141l181 129l106 -185l-659 -387q47 -29 112 -28q188 0 330 198l211 -176q-223 -281 -618 -281q-283 0 -450 117t-167 318zM207 1067q0 78 53 128t137 50t138.5 -50t54.5 -128t-54.5 -128t-138.5 -50t-137 50t-53 128z M518 440q0 -41 14 -71l259 186q-39 61 -119 61q-72 0 -113 -47t-41 -129zM666 1067q0 78 54 128t138 50t137.5 -50t53.5 -128t-53.5 -128t-137.5 -50t-138 50t-54 128z" />
<glyph unicode="&#xec;" horiz-adv-x="835" d="M76 1196v21h436l111 -308h-50zM84 0v186h109v455h-109v186h594v-641h108v-186h-702z" />
<glyph unicode="&#xed;" horiz-adv-x="835" d="M84 0v186h109v455h-109v186h594v-641h108v-186h-702zM236 909l110 308h436v-21l-497 -287h-49z" />
<glyph unicode="&#xee;" horiz-adv-x="835" d="M84 0v186h109v455h-109v186h594v-641h108v-186h-702zM86 909l180 308h266l179 -308h-52l-262 144l-260 -144h-51z" />
<glyph unicode="&#xef;" horiz-adv-x="835" d="M-2 1067q0 78 53 128t137 50t138.5 -50t54.5 -128t-54.5 -128t-138.5 -50t-137 50t-53 128zM84 0v186h109v455h-109v186h594v-641h108v-186h-702zM457 1067q0 78 54 128t138 50t137.5 -50t53.5 -128t-53.5 -128t-137.5 -50t-138 50t-54 128z" />
<glyph unicode="&#xf0;" horiz-adv-x="1546" d="M45 426q0 201 135 310.5t365 109.5q129 0 232.5 -45t164.5 -125q-16 236 -266 418l-406 -158v197l279 41q-162 90 -383 159l22 101q64 3 126 3q411 0 710 -143l379 129v-196l-209 -31q307 -221 307 -578q0 -305 -200.5 -473t-573.5 -168q-322 0 -502 119t-180 330z M569 403q0 -80 47.5 -131t120.5 -51q78 0 127 51.5t49 130.5v13q0 78 -49 130t-125 52q-72 0 -121 -52t-49 -130v-13z" />
<glyph unicode="&#xf1;" horiz-adv-x="1521" d="M61 0v186h109v455h-109v186h492l63 -227q98 248 390 248q170 0 269 -101.5t99 -289.5v-271h107v-186h-658v186h64v269q0 123 -99 123q-53 0 -84.5 -33t-46.5 -119v-240h60v-186h-656zM379 920l10 92q14 123 56 168t137 45q74 0 182 -43t121 -43q18 0 25.5 7t11.5 32l6 36 h213l-11 -92q-14 -123 -56 -168t-136 -45q-74 0 -182.5 43t-120.5 43q-18 0 -27.5 -7t-11.5 -32l-4 -36h-213z" />
<glyph unicode="&#xf2;" horiz-adv-x="1187" d="M45 411.5q0 196.5 153.5 319.5t403.5 123q238 0 389.5 -124t151.5 -318.5t-153.5 -317.5t-397.5 -123q-248 0 -397.5 122t-149.5 318.5zM190 1196v21h437l110 -308h-49zM569 412q0 -86 57.5 -142.5t145.5 -56.5q86 0 144.5 58.5t58.5 146.5t-57.5 143t-145.5 55 q-90 0 -146.5 -57t-56.5 -147z" />
<glyph unicode="&#xf3;" horiz-adv-x="1187" d="M45 411.5q0 196.5 153.5 319.5t403.5 123q238 0 389.5 -124t151.5 -318.5t-153.5 -317.5t-397.5 -123q-248 0 -397.5 122t-149.5 318.5zM473 909l111 308h436v-21l-498 -287h-49zM569 412q0 -86 57.5 -142.5t145.5 -56.5q86 0 144.5 58.5t58.5 146.5t-57.5 143t-145.5 55 q-90 0 -146.5 -57t-56.5 -147z" />
<glyph unicode="&#xf4;" horiz-adv-x="1187" d="M45 411.5q0 196.5 153.5 319.5t403.5 123q238 0 389.5 -124t151.5 -318.5t-153.5 -317.5t-397.5 -123q-248 0 -397.5 122t-149.5 318.5zM283 909l180 308h266l178 -308h-51l-262 144l-260 -144h-51zM569 412q0 -86 57.5 -142.5t145.5 -56.5q86 0 144.5 58.5t58.5 146.5 t-57.5 143t-145.5 55q-90 0 -146.5 -57t-56.5 -147z" />
<glyph unicode="&#xf5;" horiz-adv-x="1187" d="M45 411.5q0 196.5 153.5 319.5t403.5 123q238 0 389.5 -124t151.5 -318.5t-153.5 -317.5t-397.5 -123q-248 0 -397.5 122t-149.5 318.5zM213 920l10 92q14 123 56.5 168t136.5 45q72 0 182.5 -43t120.5 -43q18 0 25.5 7t11.5 32l6 36h213l-10 -92q-14 -123 -56.5 -168 t-136.5 -45q-72 0 -182.5 43t-120.5 43q-18 0 -27.5 -7t-11.5 -32l-4 -36h-213zM569 412q0 -86 57.5 -142.5t145.5 -56.5q86 0 144.5 58.5t58.5 146.5t-57.5 143t-145.5 55q-90 0 -146.5 -57t-56.5 -147z" />
<glyph unicode="&#xf6;" horiz-adv-x="1187" d="M45 411.5q0 196.5 153.5 319.5t403.5 123q238 0 389.5 -124t151.5 -318.5t-153.5 -317.5t-397.5 -123q-248 0 -397.5 122t-149.5 318.5zM174 1067q0 78 53.5 128t137.5 50t138 -50t54 -128t-54 -128t-138 -50t-137.5 50t-53.5 128zM569 412q0 -86 57.5 -142.5 t145.5 -56.5q86 0 144.5 58.5t58.5 146.5t-57.5 143t-145.5 55q-90 0 -146.5 -57t-56.5 -147zM633 1067q0 78 54 128t138 50t137.5 -50t53.5 -128t-53.5 -128t-137.5 -50t-138 50t-54 128z" />
<glyph unicode="&#xf7;" horiz-adv-x="1024" d="M78 299v248q264 -12 434 -12l434 12v-248q-266 12 -436 12zM360 120.5q0 63.5 42 104.5t110 41t110 -41t42 -104.5t-42 -104.5t-110 -41t-110 41t-42 104.5zM360 725q0 63 42 104t110 41t110 -41t42 -104t-42 -104t-110 -41t-110 41t-42 104z" />
<glyph unicode="&#xf8;" horiz-adv-x="1187" d="M45 412q0 195 160 318.5t409 123.5q195 0 336 -84l119 160h166l-180 -244q109 -115 108 -274q0 -195 -157.5 -318t-401.5 -123q-49 0 -72 2l-147 -200h-166l28 38l54 73l59 83l25 33q-158 47 -249 154.5t-91 257.5zM528 412q0 -86 62 -144l254 348q-37 12 -80 13 q-100 0 -168 -60.5t-68 -156.5zM700 207q31 -6 64 -6q96 0 163.5 62.5t67.5 154.5q0 74 -45 129q-248 -338 -250 -340z" />
<glyph unicode="&#xf9;" horiz-adv-x="1501" d="M41 641v186h594v-454q0 -123 98 -123q53 0 86 32.5t45 118.5v240h-100v186h588v-641h108v-186h-512l-57 195q-104 -215 -375 -215q-170 0 -269.5 101t-99.5 290v270h-106zM305 1196v21h436l111 -308h-49z" />
<glyph unicode="&#xfa;" horiz-adv-x="1501" d="M41 641v186h594v-454q0 -123 98 -123q53 0 86 32.5t45 118.5v240h-100v186h588v-641h108v-186h-512l-57 195q-104 -215 -375 -215q-170 0 -269.5 101t-99.5 290v270h-106zM567 909l111 308h436v-21l-498 -287h-49z" />
<glyph unicode="&#xfb;" horiz-adv-x="1501" d="M41 641v186h594v-454q0 -123 98 -123q53 0 86 32.5t45 118.5v240h-100v186h588v-641h108v-186h-512l-57 195q-104 -215 -375 -215q-170 0 -269.5 101t-99.5 290v270h-106zM438 909l180 308h267l178 -308h-51l-262 144l-261 -144h-51z" />
<glyph unicode="&#xfc;" horiz-adv-x="1501" d="M41 641v186h594v-454q0 -123 98 -123q53 0 86 32.5t45 118.5v240h-100v186h588v-641h108v-186h-512l-57 195q-104 -215 -375 -215q-170 0 -269.5 101t-99.5 290v270h-106zM289 1067q0 78 53 128t137 50t138.5 -50t54.5 -128t-54.5 -128t-138.5 -50t-137 50t-53 128z M748 1067q0 78 54 128t138 50t137 -50t53 -128t-53 -128t-137 -50t-138 50t-54 128z" />
<glyph unicode="&#xfd;" horiz-adv-x="1413" d="M23 641v186h595v-442q0 -123 95 -123q86 0 106 100v279h-80v186h568v-594q0 -279 -169 -406.5t-540 -127.5q-272 0 -477 78l59 198q174 -63 340 -63q299 0 299 194v66q-115 -152 -327 -152q-168 0 -264.5 103.5t-96.5 296.5v221h-108zM610 909l111 308h436v-21l-498 -287 h-49z" />
<glyph unicode="&#xfe;" horiz-adv-x="1482" d="M4 1186v250h637v-707q113 119 324 119q207 0 340 -119t133 -313.5t-137.5 -314t-346.5 -119.5q-217 0 -317 127v-203h98v-187h-694v187h109l2 1349zM637 420q0 -98 36 -152.5t101 -54.5q72 0 112 52t40 151q0 205 -152 205q-66 0 -101.5 -53.5t-35.5 -147.5z" />
<glyph unicode="&#xff;" horiz-adv-x="1413" d="M23 641v186h595v-442q0 -123 95 -123q86 0 106 100v279h-80v186h568v-594q0 -279 -169 -406.5t-540 -127.5q-272 0 -477 78l59 198q174 -63 340 -63q299 0 299 194v66q-115 -152 -327 -152q-168 0 -264.5 103.5t-96.5 296.5v221h-108zM276 1067q0 78 53.5 128t137.5 50 t138 -50t54 -128t-54 -128t-138 -50t-137.5 50t-53.5 128zM735 1067q0 78 54.5 128t138.5 50t137 -50t53 -128t-53 -128t-137 -50t-138.5 50t-54.5 128z" />
<glyph unicode="&#x152;" horiz-adv-x="2537" d="M55 645q0 289 211 466t576 177h1568v-403h-147l-162 278h-364v-430h209v146h145v-445h-145v152h-209v-457h411q0 158 70 244t203 86h30v-459h-1607q-365 0 -577 178t-212 467zM676 643q0 -250 106.5 -384t288.5 -134h33v1036h-21q-188 0 -297.5 -133t-109.5 -385z" />
<glyph unicode="&#x153;" horiz-adv-x="2232" d="M45 411.5q0 196.5 153.5 319.5t403.5 123q303 0 453 -186q133 203 450 202q238 0 404 -161l178 127l106 -185l-667 -387q47 -29 119 -28q190 0 331 198l211 -176q-104 -133 -244.5 -207t-353.5 -74q-367 0 -522 199q-150 -205 -475 -205q-248 0 -397.5 122t-149.5 318.5z M569 412q0 -86 57.5 -142.5t145.5 -56.5q86 0 144.5 58.5t58.5 146.5t-57.5 143t-145.5 55q-90 0 -146.5 -57t-56.5 -147zM1415 453q0 -47 19 -80l270 190q-33 66 -125 66q-80 0 -122 -48t-42 -128z" />
<glyph unicode="&#x178;" horiz-adv-x="1720" d="M37 1102v186h848v-186h-137l270 -393l252 372h-180v207h565v-207h-162l-360 -520v-375h135v-186h-822v186h136v340l-420 576h-125zM522 1507.5q0 77.5 53.5 128t137.5 50.5t138 -50.5t54 -128t-54 -128t-138 -50.5t-137.5 50.5t-53.5 128zM981 1507.5q0 77.5 54.5 128 t138 50.5t137 -50.5t53.5 -128t-53.5 -128t-137 -50.5t-138 50.5t-54.5 128z" />
<glyph unicode="&#x2c6;" horiz-adv-x="1021" d="M199 909l180 308h266l178 -308h-51l-262 144l-260 -144h-51z" />
<glyph unicode="&#x2dc;" horiz-adv-x="1019" d="M129 920l10 92q14 123 56.5 168t136.5 45q74 0 182.5 -43t120.5 -43q18 0 25.5 7t11.5 32l6 36h213l-10 -92q-14 -123 -56.5 -168t-136.5 -45q-74 0 -182.5 43t-120.5 43q-18 0 -27.5 -7t-11.5 -32l-4 -36h-213z" />
<glyph unicode="&#x2013;" horiz-adv-x="1388" d="M82 344v217h1225v-217h-1225z" />
<glyph unicode="&#x2014;" horiz-adv-x="2002" d="M82 344v217h1839v-217h-1839z" />
<glyph unicode="&#x2018;" horiz-adv-x="716" d="M61 975q0 141 121 230t350 108l33 -74q-59 -12 -100 -51t-41 -94q0 -70 63 -106q35 -20 80 -20q36 0 78 13h10v-16q0 -123 -83 -204t-216 -81q-129 0 -212 85t-83 210z" />
<glyph unicode="&#x2019;" horiz-adv-x="749" d="M78 1010v16q0 123 83 204t216 81q129 0 212 -85t83 -210q0 -141 -121 -230.5t-350 -107.5l-33 74q59 12 100 51t41 94q0 70 -63 105q-35 20 -80 20q-36 0 -78 -12h-10z" />
<glyph unicode="&#x201a;" horiz-adv-x="749" d="M78 162v16q0 123 83 204t216 81q129 0 212 -85t83 -210q0 -141 -121 -230.5t-350 -107.5l-33 74q59 12 100 51t41 94q0 70 -63 106q-35 20 -80 20q-36 0 -78 -13h-10z" />
<glyph unicode="&#x201c;" horiz-adv-x="1372" d="M61 975q0 141 121 230t350 108l33 -74q-59 -12 -100 -51t-41 -94q0 -70 63 -106q35 -20 80 -20q36 0 78 13h10v-16q0 -123 -83 -204t-216 -81q-129 0 -212 85t-83 210zM717 975q0 141 120.5 230t350.5 108l33 -74q-59 -12 -100.5 -51t-41.5 -94q0 -70 64 -106 q35 -20 80 -20q36 0 77 13h11v-16q0 -123 -83 -204t-216 -81q-129 0 -212 85t-83 210z" />
<glyph unicode="&#x201d;" horiz-adv-x="1388" d="M78 1010v16q0 123 83 204t216 81q129 0 212 -85t83 -210q0 -141 -121 -230.5t-350 -107.5l-33 74q59 12 100 51t41 94q0 70 -63 105q-35 20 -80 20q-36 0 -78 -12h-10zM733 1010v16q0 123 83 204t216 81q129 0 212 -85t83 -210q0 -141 -121 -230.5t-350 -107.5l-33 74 q59 12 100.5 51t41.5 94q0 70 -64 105q-35 20 -80 20q-36 0 -78 -12h-10z" />
<glyph unicode="&#x201e;" horiz-adv-x="1388" d="M78 162v16q0 123 83 204t216 81q129 0 212 -85t83 -210q0 -141 -121 -230.5t-350 -107.5l-33 74q59 12 100 51t41 94q0 70 -63 106q-35 20 -80 20q-36 0 -78 -13h-10zM733 162v16q0 123 83 204t216 81q129 0 212 -85t83 -210q0 -141 -121 -230.5t-350 -107.5l-33 74 q59 12 100.5 51t41.5 94q0 70 -64 106q-35 20 -80 20q-36 0 -78 -13h-10z" />
<glyph unicode="&#x2022;" horiz-adv-x="1155" d="M135 412q0 154 125 256t313 102q201 0 324 -98.5t123 -259.5q0 -158 -124 -258.5t-323 -100.5q-193 0 -315.5 100.5t-122.5 258.5z" />
<glyph unicode="&#x2026;" horiz-adv-x="2248" d="M94 243.5q0 116.5 78 192.5t203 76t202.5 -76t77.5 -192.5t-77.5 -191.5t-202.5 -75t-203 75t-78 191.5zM844 243.5q0 116.5 77.5 192.5t202.5 76t203 -76t78 -192.5t-78 -191.5t-203 -75t-202.5 75t-77.5 191.5zM1593 243.5q0 116.5 78 192.5t203 76t202.5 -76 t77.5 -192.5t-77.5 -191.5t-202.5 -75t-203 75t-78 191.5z" />
<glyph unicode="&#x2039;" horiz-adv-x="536" d="M45 307v185l447 325v-336l-121 -82l121 -82v-335z" />
<glyph unicode="&#x203a;" horiz-adv-x="536" d="M45 -18v335l121 82l-121 82v336l447 -325v-185z" />
<glyph unicode="&#x2122;" horiz-adv-x="1951" d="M121 1087v201h684v-201h-68l-98 132h-27v-426h52v-84h-390v84h54v426h-41l-101 -132h-65zM881 709v84h59v411h-59v84h333l134 -346l131 346h354v-84h-59v-411h59v-84h-367v84h45v374l-170 -458h-161l-172 454v-370h55v-84h-182z" />
<glyph unicode="&#xe000;" horiz-adv-x="825" d="M0 825h825v-825h-825v825z" />
<glyph unicode="&#xfb01;" horiz-adv-x="1703" d="M23 641v186h157v197q0 225 107.5 371.5t320.5 146.5q125 0 203 -71.5t78 -184.5q0 -96 -66.5 -162.5t-167 -66.5t-167 64.5t-76.5 148.5h-27q14 -96 74.5 -184.5t140.5 -139.5q68 -43 68 -55v-64h157v-186h-157v-455h114v-186h-710v186h108v455h-157zM952 0v186h109v455 h-109v186h594v-641h109v-186h-703zM1018 1146.5q0 108.5 74.5 178.5t191.5 70t191.5 -70t74.5 -178.5t-74.5 -178t-191.5 -69.5t-191.5 69.5t-74.5 178z" />
<glyph unicode="&#xfb02;" horiz-adv-x="1689" d="M23 641v186h157v197q0 225 107.5 371.5t320.5 146.5q154 0 234 -106h682v-1250h100v-186h-690v186h100v1069l-160 -49q-25 -66 -83 -107.5t-136 -41.5q-100 0 -166.5 64.5t-76.5 148.5h-27q14 -96 74.5 -184.5t140.5 -139.5q68 -43 68 -55v-64h198v-186h-198v-455h114 v-186h-710v186h108v455h-157z" />
<glyph unicode="&#xfb03;" horiz-adv-x="2572" d="M25 641v186h157v197q0 225 107.5 371.5t320.5 146.5q125 0 203 -71.5t78 -184.5q0 -96 -66.5 -162.5t-167 -66.5t-167 64.5t-76.5 148.5h-27q14 -96 74.5 -184.5t140.5 -139.5q68 -43 68 -55v-64h157v-186h-157v-455h114v-186h-710v186h108v455h-157zM893 641v186h158 v197q0 225 107.5 371.5t320.5 146.5q125 0 202.5 -71.5t77.5 -184.5q0 -96 -66.5 -162.5t-167 -66.5t-167 64.5t-76.5 148.5h-27q14 -96 75 -184.5t140 -139.5q68 -43 68 -55v-64h158v-186h-158v-455h115v-186h-711v186h109v455h-158zM1821 0v186h108v455h-108v186h594v-641 h108v-186h-702zM1886 1146.5q0 108.5 75 178.5t191.5 70t191.5 -70t75 -178.5t-75 -178t-191.5 -69.5t-191.5 69.5t-75 178z" />
<glyph unicode="&#xfb04;" horiz-adv-x="2557" d="M25 641v186h157v197q0 225 107.5 371.5t320.5 146.5q125 0 203 -71.5t78 -184.5q0 -96 -66.5 -162.5t-167 -66.5t-167 64.5t-76.5 148.5h-27q14 -96 74.5 -184.5t140.5 -139.5q68 -43 68 -55v-64h157v-186h-157v-455h114v-186h-710v186h108v455h-157zM893 641v186h158 v197q0 225 107.5 371.5t320.5 146.5q125 0 202.5 -71.5t77.5 -184.5q0 -96 -66.5 -162.5t-167 -66.5t-167 64.5t-76.5 148.5h-27q14 -96 75 -184.5t140 -139.5q68 -43 68 -55v-64h158v-186h-158v-455h115v-186h-711v186h109v455h-158zM1735 1186v250h657v-1250h100v-186 h-690v186h101v1069z" />
</font>
</defs>
</svg>
